<mxfile host="f95a616e-e408-4f4d-93ea-ce78b5a84004" modified="2020-08-13T15:52:34.067Z" agent="5.0 (X11; Linux x86_64) AppleWebKit/537.36 (KHTML, like Gecko) Code/1.47.3 Chrome/78.0.3904.130 Electron/7.3.2 Safari/537.36" etag="5mRB46xTXi2UNfpQjsRF" version="13.1.3">
    <diagram id="6hGFLwfOUW9BJ-s0fimq" name="Page-1">
        <mxGraphModel dx="1016" dy="1938" grid="1" gridSize="10" guides="1" tooltips="1" connect="1" arrows="1" fold="1" page="1" pageScale="1" pageWidth="827" pageHeight="1169" math="0" shadow="0">
            <root>
                <mxCell id="0"/>
                <mxCell id="1" parent="0"/>
                <mxCell id="40" style="edgeStyle=orthogonalEdgeStyle;rounded=0;orthogonalLoop=1;jettySize=auto;html=1;entryX=0;entryY=0.5;entryDx=0;entryDy=0;startArrow=none;startFill=0;endArrow=classic;endFill=1;" parent="1" source="5" target="30" edge="1">
                    <mxGeometry relative="1" as="geometry"/>
                </mxCell>
                <mxCell id="44" value="Get CSCs data &lt;br&gt;with salobj from&amp;nbsp;" style="edgeLabel;html=1;align=center;verticalAlign=middle;resizable=0;points=[];" parent="40" vertex="1" connectable="0">
                    <mxGeometry x="0.3226" relative="1" as="geometry">
                        <mxPoint x="-28" as="offset"/>
                    </mxGeometry>
                </mxCell>
                <UserObject label="SAL" lucidchartObjectId="G4LMOLdaqRaX" id="5">
                    <mxCell style="html=1;whiteSpace=wrap;;fontSize=11;fontColor=#000000;spacing=3;strokeOpacity=100;fillColor=#FFFFFF;" parent="1" vertex="1" zOrder="1">
                        <mxGeometry x="30" y="-1010" width="96" height="59" as="geometry"/>
                    </mxCell>
                </UserObject>
                <mxCell id="48" style="edgeStyle=orthogonalEdgeStyle;rounded=0;orthogonalLoop=1;jettySize=auto;html=1;entryX=1;entryY=0.5;entryDx=0;entryDy=0;startArrow=classic;startFill=1;endArrow=none;endFill=0;" parent="1" source="10" target="30" edge="1">
                    <mxGeometry relative="1" as="geometry"/>
                </mxCell>
                <mxCell id="52" value="&lt;span style=&quot;color: rgb(0 , 0 , 0) ; font-family: &amp;#34;helvetica&amp;#34; ; font-size: 11px ; font-style: normal ; font-weight: 400 ; letter-spacing: normal ; text-align: center ; text-indent: 0px ; text-transform: none ; word-spacing: 0px ; background-color: rgb(255 , 255 , 255) ; float: none ; display: inline&quot;&gt;Sends CSCs &lt;br&gt;data to&lt;/span&gt;&lt;br style=&quot;color: rgb(0 , 0 , 0) ; font-family: &amp;#34;helvetica&amp;#34; ; font-size: 11px ; font-style: normal ; font-weight: 400 ; letter-spacing: normal ; text-align: center ; text-indent: 0px ; text-transform: none ; word-spacing: 0px&quot;&gt;&lt;span style=&quot;color: rgb(0 , 0 , 0) ; font-family: &amp;#34;helvetica&amp;#34; ; font-size: 11px ; font-style: normal ; font-weight: 400 ; letter-spacing: normal ; text-align: center ; text-indent: 0px ; text-transform: none ; word-spacing: 0px ; background-color: rgb(255 , 255 , 255) ; float: none ; display: inline&quot;&gt;(websockets)&lt;/span&gt;" style="edgeLabel;html=1;align=center;verticalAlign=middle;resizable=0;points=[];" parent="48" vertex="1" connectable="0">
                    <mxGeometry x="-0.3284" y="4" relative="1" as="geometry">
                        <mxPoint x="-25" y="-4" as="offset"/>
                    </mxGeometry>
                </mxCell>
                <UserObject label="Manager" lucidchartObjectId=".g3MWFg-sE8c" id="10">
                    <mxCell style="html=1;whiteSpace=wrap;;fontSize=11;fontColor=#000000;spacing=3;strokeOpacity=100;fillColor=#FFFFFF;" parent="1" vertex="1" zOrder="4">
                        <mxGeometry x="490" y="-1010" width="96" height="59" as="geometry"/>
                    </mxCell>
                </UserObject>
                <mxCell id="41" value="Creates salobj remotes&lt;br&gt;according to" style="edgeStyle=orthogonalEdgeStyle;rounded=0;orthogonalLoop=1;jettySize=auto;html=1;entryX=0.5;entryY=0.847;entryDx=0;entryDy=0;entryPerimeter=0;startArrow=classic;startFill=1;endArrow=none;endFill=0;" parent="1" source="30" target="37" edge="1">
                    <mxGeometry relative="1" as="geometry"/>
                </mxCell>
                <UserObject label="Producer(s)" lucidchartObjectId="G4LMOLdaqRaX" id="30">
                    <mxCell style="html=1;whiteSpace=wrap;;fontSize=11;fontColor=#000000;spacing=3;strokeOpacity=100;fillColor=#FFFFFF;" parent="1" vertex="1" zOrder="1">
                        <mxGeometry x="260" y="-1010" width="96" height="59" as="geometry"/>
                    </mxCell>
                </UserObject>
                <UserObject label="&lt;font color=&quot;#0066cc&quot;&gt;config.json&lt;br&gt;&lt;br&gt;&lt;/font&gt;" lucidchartObjectId="Uz3MTHXA16VP" id="37">
                    <mxCell style="html=1;whiteSpace=wrap;shape=document;fontSize=11;fontColor=#000000;spacing=3;strokeOpacity=100;strokeColor=#0066CC;fillColor=#FFFFFF;" parent="1" vertex="1" zOrder="18">
                        <mxGeometry x="269.5" y="-1140" width="77" height="59" as="geometry"/>
                    </mxCell>
                </UserObject>
                <mxCell id="47" style="edgeStyle=orthogonalEdgeStyle;rounded=0;orthogonalLoop=1;jettySize=auto;html=1;startArrow=none;startFill=0;endArrow=classic;endFill=1;" parent="1" source="38" target="30" edge="1">
                    <mxGeometry relative="1" as="geometry"/>
                </mxCell>
                <UserObject label="&lt;font color=&quot;#0066cc&quot;&gt;environment variables&lt;br&gt;&lt;br&gt;&lt;/font&gt;" lucidchartObjectId="Uz3MTHXA16VP" id="38">
                    <mxCell style="html=1;whiteSpace=wrap;shape=document;fontSize=11;fontColor=#000000;spacing=3;strokeOpacity=100;strokeColor=#0066CC;fillColor=#FFFFFF;" parent="1" vertex="1" zOrder="18">
                        <mxGeometry x="269.5" y="-920" width="77" height="59" as="geometry"/>
                    </mxCell>
                </UserObject>
            </root>
        </mxGraphModel>
    </diagram>
</mxfile>